<mxfile host="65bd71144e">
    <diagram id="vwbJsP5kCBEH-EEFsKNK" name="Page-1">
        <mxGraphModel dx="966" dy="383" grid="1" gridSize="10" guides="1" tooltips="1" connect="1" arrows="1" fold="1" page="1" pageScale="1" pageWidth="850" pageHeight="1100" math="0" shadow="0">
            <root>
                <mxCell id="0"/>
                <mxCell id="1" parent="0"/>
                <mxCell id="3" value="&lt;b&gt;feedbackCodeBooks&lt;/b&gt;&lt;br&gt;&lt;div&gt;code&lt;/div&gt;&lt;div&gt;coder&lt;/div&gt;&lt;div&gt;createdAt&lt;/div&gt;" style="shape=cylinder3;whiteSpace=wrap;html=1;boundedLbl=1;backgroundOutline=1;size=15;align=left;" parent="1" vertex="1">
                    <mxGeometry x="57" y="370" width="130" height="110" as="geometry"/>
                </mxCell>
                <mxCell id="4" style="edgeStyle=orthogonalEdgeStyle;rounded=0;orthogonalLoop=1;jettySize=auto;html=1;entryX=0.075;entryY=0.524;entryDx=0;entryDy=0;entryPerimeter=0;" parent="1" source="5" target="16" edge="1">
                    <mxGeometry relative="1" as="geometry">
                        <mxPoint x="339" y="633" as="targetPoint"/>
                    </mxGeometry>
                </mxCell>
                <mxCell id="5" value="&lt;b&gt;feedbackCodes&lt;/b&gt;&lt;br&gt;&lt;div&gt;coder&lt;/div&gt;&lt;div&gt;code&lt;/div&gt;&lt;div&gt;&lt;span style=&quot;text-align: center&quot;&gt;choice&lt;/span&gt;&lt;br&gt;&lt;/div&gt;&lt;div&gt;approved&lt;/div&gt;&lt;div&gt;project&lt;/div&gt;&lt;div&gt;fullname&lt;/div&gt;&lt;div&gt;session&lt;/div&gt;&lt;div&gt;expIdx&lt;/div&gt;&lt;div&gt;explanation&lt;/div&gt;&lt;div&gt;quotes&lt;/div&gt;&lt;div&gt;createdAt&lt;/div&gt;" style="shape=cylinder3;whiteSpace=wrap;html=1;boundedLbl=1;backgroundOutline=1;size=15;align=left;" parent="1" vertex="1">
                    <mxGeometry x="72.5" y="522" width="100" height="222" as="geometry"/>
                </mxCell>
                <mxCell id="6" style="edgeStyle=orthogonalEdgeStyle;rounded=0;orthogonalLoop=1;jettySize=auto;html=1;" parent="1" source="7" target="11" edge="1">
                    <mxGeometry relative="1" as="geometry">
                        <mxPoint x="587.5" y="361" as="targetPoint"/>
                        <Array as="points">
                            <mxPoint x="561" y="358"/>
                            <mxPoint x="587" y="358"/>
                        </Array>
                    </mxGeometry>
                </mxCell>
                <mxCell id="7" value="&lt;b&gt;Prior Codes in Spreadsheet&lt;br&gt;&lt;/b&gt;coder&lt;br&gt;participant&lt;br&gt;explanation&lt;br&gt;code&lt;br&gt;choice&lt;br&gt;expIdx&lt;br&gt;session" style="shape=parallelogram;perimeter=parallelogramPerimeter;whiteSpace=wrap;html=1;fixedSize=1;align=center;" parent="1" vertex="1">
                    <mxGeometry x="458" y="222" width="205.5" height="117" as="geometry"/>
                </mxCell>
                <mxCell id="8" style="edgeStyle=orthogonalEdgeStyle;rounded=0;orthogonalLoop=1;jettySize=auto;html=1;entryX=1;entryY=0.5;entryDx=0;entryDy=0;" parent="1" source="11" target="14" edge="1">
                    <mxGeometry relative="1" as="geometry"/>
                </mxCell>
                <mxCell id="9" style="edgeStyle=orthogonalEdgeStyle;rounded=0;orthogonalLoop=1;jettySize=auto;html=1;" parent="1" source="11" target="16" edge="1">
                    <mxGeometry relative="1" as="geometry"/>
                </mxCell>
                <mxCell id="10" style="edgeStyle=orthogonalEdgeStyle;rounded=0;orthogonalLoop=1;jettySize=auto;html=1;exitX=0.5;exitY=1;exitDx=0;exitDy=0;entryX=0;entryY=0.5;entryDx=0;entryDy=0;" parent="1" source="11" target="30" edge="1">
                    <mxGeometry relative="1" as="geometry">
                        <mxPoint x="652.5" y="541" as="targetPoint"/>
                    </mxGeometry>
                </mxCell>
                <mxCell id="11" value="For every prior code" style="ellipse;whiteSpace=wrap;html=1;" parent="1" vertex="1">
                    <mxGeometry x="527.5" y="385" width="120" height="80" as="geometry"/>
                </mxCell>
                <mxCell id="12" value="No" style="edgeStyle=orthogonalEdgeStyle;rounded=0;html=1;labelBackgroundColor=none;startSize=5;endArrow=classicThin;endFill=1;endSize=5;jettySize=auto;orthogonalLoop=1;strokeWidth=1;fontFamily=Verdana;fontSize=8;exitX=0;exitY=0.5;exitDx=0;exitDy=0;entryX=1;entryY=0.5;entryDx=0;entryDy=0;entryPerimeter=0;" parent="1" source="14" target="3" edge="1">
                    <mxGeometry x="-0.7778" y="10" relative="1" as="geometry">
                        <mxPoint as="offset"/>
                        <mxPoint x="299.5" y="604" as="sourcePoint"/>
                        <mxPoint x="239.5" y="493" as="targetPoint"/>
                        <Array as="points">
                            <mxPoint x="187.5" y="424"/>
                        </Array>
                    </mxGeometry>
                </mxCell>
                <mxCell id="13" style="edgeStyle=orthogonalEdgeStyle;rounded=0;orthogonalLoop=1;jettySize=auto;html=1;exitX=0.037;exitY=0.507;exitDx=0;exitDy=0;exitPerimeter=0;entryX=0;entryY=0.5;entryDx=0;entryDy=0;" parent="1" source="14" target="28" edge="1">
                    <mxGeometry relative="1" as="geometry">
                        <Array as="points">
                            <mxPoint x="219" y="425"/>
                            <mxPoint x="219" y="201"/>
                        </Array>
                    </mxGeometry>
                </mxCell>
                <mxCell id="14" value="Does code exist?" style="rhombus;whiteSpace=wrap;html=1;rounded=0;shadow=1;labelBackgroundColor=none;strokeWidth=1;fontFamily=Verdana;fontSize=8;align=center;" parent="1" vertex="1">
                    <mxGeometry x="249.5" y="395" width="100" height="60" as="geometry"/>
                </mxCell>
                <mxCell id="15" style="edgeStyle=orthogonalEdgeStyle;rounded=0;orthogonalLoop=1;jettySize=auto;html=1;entryX=0.5;entryY=0;entryDx=0;entryDy=0;" parent="1" source="16" target="22" edge="1">
                    <mxGeometry relative="1" as="geometry"/>
                </mxCell>
                <mxCell id="16" value="Get all feedbackCodes&lt;br&gt;with the same:&lt;br&gt;explanation &amp;amp;&amp;amp;&lt;br&gt;code &amp;amp;&amp;amp;&lt;br&gt;choice &amp;amp;&amp;amp;&lt;br&gt;expIdx &amp;amp;&amp;amp;&lt;br&gt;session" style="shape=trapezoid;perimeter=trapezoidPerimeter;whiteSpace=wrap;html=1;fixedSize=1;" parent="1" vertex="1">
                    <mxGeometry x="530.5" y="567" width="115" height="125" as="geometry"/>
                </mxCell>
                <mxCell id="17" style="edgeStyle=orthogonalEdgeStyle;rounded=0;orthogonalLoop=1;jettySize=auto;html=1;entryX=1.002;entryY=0.872;entryDx=0;entryDy=0;entryPerimeter=0;exitX=0;exitY=0.5;exitDx=0;exitDy=0;startArrow=none;" parent="1" source="23" target="5" edge="1">
                    <mxGeometry relative="1" as="geometry">
                        <Array as="points"/>
                    </mxGeometry>
                </mxCell>
                <mxCell id="18" value="Yes" style="edgeStyle=orthogonalEdgeStyle;rounded=0;orthogonalLoop=1;jettySize=auto;html=1;entryX=1;entryY=0.5;entryDx=0;entryDy=0;exitX=0.5;exitY=1;exitDx=0;exitDy=0;" parent="1" source="22" target="23" edge="1">
                    <mxGeometry x="-0.8" y="10" relative="1" as="geometry">
                        <mxPoint as="offset"/>
                    </mxGeometry>
                </mxCell>
                <mxCell id="19" style="edgeStyle=orthogonalEdgeStyle;rounded=0;orthogonalLoop=1;jettySize=auto;html=1;" parent="1" source="22" target="25" edge="1">
                    <mxGeometry relative="1" as="geometry"/>
                </mxCell>
                <mxCell id="20" value="No" style="edgeLabel;html=1;align=center;verticalAlign=middle;resizable=0;points=[];" parent="19" connectable="0" vertex="1">
                    <mxGeometry x="-0.325" y="-1" relative="1" as="geometry">
                        <mxPoint y="-14" as="offset"/>
                    </mxGeometry>
                </mxCell>
                <mxCell id="21" style="edgeStyle=orthogonalEdgeStyle;rounded=0;orthogonalLoop=1;jettySize=auto;html=1;entryX=0.5;entryY=1;entryDx=0;entryDy=0;exitX=0.5;exitY=1;exitDx=0;exitDy=0;" parent="1" source="22" target="32" edge="1">
                    <mxGeometry relative="1" as="geometry">
                        <Array as="points">
                            <mxPoint x="743" y="779"/>
                            <mxPoint x="893" y="779"/>
                        </Array>
                    </mxGeometry>
                </mxCell>
                <mxCell id="22" value="&amp;gt;= 2" style="rhombus;whiteSpace=wrap;html=1;rounded=0;shadow=1;labelBackgroundColor=none;strokeWidth=1;fontFamily=Verdana;fontSize=8;align=center;" parent="1" vertex="1">
                    <mxGeometry x="693" y="686" width="100" height="60" as="geometry"/>
                </mxCell>
                <mxCell id="23" value="Set approved = true&amp;nbsp;and the rest of the fields as a new document" style="rounded=1;whiteSpace=wrap;html=1;shadow=1;labelBackgroundColor=none;strokeWidth=1;fontFamily=Verdana;fontSize=8;align=center;" parent="1" vertex="1">
                    <mxGeometry x="483" y="764" width="120" height="30" as="geometry"/>
                </mxCell>
                <mxCell id="24" style="edgeStyle=orthogonalEdgeStyle;rounded=0;orthogonalLoop=1;jettySize=auto;html=1;entryX=0.995;entryY=0.872;entryDx=0;entryDy=0;entryPerimeter=0;" parent="1" source="25" target="5" edge="1">
                    <mxGeometry relative="1" as="geometry"/>
                </mxCell>
                <mxCell id="25" value="Set approved = false and the rest of the fields&amp;nbsp;as a new document" style="rounded=1;whiteSpace=wrap;html=1;shadow=1;labelBackgroundColor=none;strokeWidth=1;fontFamily=Verdana;fontSize=8;align=center;" parent="1" vertex="1">
                    <mxGeometry x="493" y="701" width="120" height="30" as="geometry"/>
                </mxCell>
                <mxCell id="26" value="&lt;b&gt;researchers&lt;/b&gt;&lt;br&gt;id&lt;br&gt;projects:&lt;br&gt;&amp;nbsp; &amp;nbsp;H2K2:&lt;br&gt;&amp;nbsp; &amp;nbsp;{&lt;br&gt;&amp;nbsp; &amp;nbsp; &amp;nbsp; expPoints 112&lt;br&gt;&amp;nbsp; &amp;nbsp; &amp;nbsp; // Intellectual Points&lt;br&gt;&amp;nbsp; &amp;nbsp; &amp;nbsp; points 1&lt;br&gt;&amp;nbsp; &amp;nbsp; &amp;nbsp; upVotes 0&amp;nbsp;&lt;br&gt;&amp;nbsp; &amp;nbsp; &amp;nbsp; noVotes 0&lt;br&gt;&lt;div&gt;&amp;nbsp; &amp;nbsp; &amp;nbsp; dayUpVotePoints 70&amp;nbsp;&lt;/div&gt;&amp;nbsp; &amp;nbsp; &amp;nbsp; // Instructors&amp;nbsp;Points&lt;br&gt;&amp;nbsp; &amp;nbsp; &amp;nbsp; instructors 1&lt;br&gt;&amp;nbsp; &amp;nbsp; &amp;nbsp; instructorDownVotes 3&lt;br&gt;&amp;nbsp; &amp;nbsp; &amp;nbsp; instructorUpVotes 0&lt;br&gt;&amp;nbsp; &amp;nbsp; &amp;nbsp;&amp;nbsp;&lt;span style=&quot;color: rgb(0 , 0 , 0)&quot;&gt;dayInstructorUpVotes 0&lt;/span&gt;&lt;br&gt;&lt;div&gt;&lt;/div&gt;&amp;nbsp; &amp;nbsp; &amp;nbsp; // 1Cademy&amp;nbsp;Points&lt;br&gt;&amp;nbsp; &amp;nbsp; &amp;nbsp; onePoints 4&lt;br&gt;&amp;nbsp; &amp;nbsp; &amp;nbsp; dayOneUpVotePoints 0&lt;br&gt;&amp;nbsp; &amp;nbsp; &amp;nbsp; // Coding Points&lt;br&gt;&amp;nbsp; &amp;nbsp; &amp;nbsp; codesNum&lt;br&gt;&amp;nbsp; &amp;nbsp; &amp;nbsp; codesGenerated&lt;br&gt;&amp;nbsp; &amp;nbsp; &amp;nbsp; codePoints&lt;br&gt;&amp;nbsp; &amp;nbsp; &amp;nbsp; // # of consecutive same codes assigned&lt;br&gt;&amp;nbsp; &amp;nbsp; &amp;nbsp; sameCode&lt;br&gt;&amp;nbsp; &amp;nbsp; }" style="shape=cylinder3;whiteSpace=wrap;html=1;boundedLbl=1;backgroundOutline=1;size=15;align=left;" parent="1" vertex="1">
                    <mxGeometry x="812.5" y="181" width="160" height="431" as="geometry"/>
                </mxCell>
                <mxCell id="27" style="edgeStyle=orthogonalEdgeStyle;rounded=0;orthogonalLoop=1;jettySize=auto;html=1;exitX=0.5;exitY=1;exitDx=0;exitDy=0;" parent="1" source="28" target="26" edge="1">
                    <mxGeometry relative="1" as="geometry"/>
                </mxCell>
                <mxCell id="28" value="codesGenerated++&lt;br&gt;for researcher id == coder" style="rounded=0;whiteSpace=wrap;html=1;" parent="1" vertex="1">
                    <mxGeometry x="672.5" y="171" width="120" height="60" as="geometry"/>
                </mxCell>
                <mxCell id="29" style="edgeStyle=orthogonalEdgeStyle;rounded=0;orthogonalLoop=1;jettySize=auto;html=1;entryX=0;entryY=0.789;entryDx=0;entryDy=0;entryPerimeter=0;" parent="1" source="30" target="26" edge="1">
                    <mxGeometry relative="1" as="geometry"/>
                </mxCell>
                <mxCell id="30" value="codesNum++&lt;br&gt;for researcher id == coder" style="rounded=0;whiteSpace=wrap;html=1;" parent="1" vertex="1">
                    <mxGeometry x="642.5" y="491" width="120" height="60" as="geometry"/>
                </mxCell>
                <mxCell id="31" style="edgeStyle=orthogonalEdgeStyle;rounded=0;orthogonalLoop=1;jettySize=auto;html=1;entryX=0.5;entryY=1;entryDx=0;entryDy=0;entryPerimeter=0;" parent="1" source="32" target="26" edge="1">
                    <mxGeometry relative="1" as="geometry"/>
                </mxCell>
                <mxCell id="32" value="codesPoints++&lt;br&gt;for researcher id == coder" style="rounded=0;whiteSpace=wrap;html=1;" parent="1" vertex="1">
                    <mxGeometry x="833" y="686" width="120" height="60" as="geometry"/>
                </mxCell>
                <mxCell id="33" value="&lt;h1&gt;loadfeedbackCodes&lt;/h1&gt;" style="text;html=1;resizable=0;autosize=1;align=center;verticalAlign=middle;points=[];fillColor=none;strokeColor=none;rounded=0;" parent="1" vertex="1">
                    <mxGeometry x="377.5" y="80" width="240" height="50" as="geometry"/>
                </mxCell>
            </root>
        </mxGraphModel>
    </diagram>
</mxfile>